PathFileType	4	(X/Y/Z)	/Users/itak/Documents/Research/Walk-IL/dataset/trc/00118_00007.trc
DataRate	CameraRate	NumFrames	NumMarkers	Units	OrigDataRate	OrigDataStartFrame	OrigNumFrames
100.000000	100.000000	4	55	mm	100.000000	656	750
Frame#	Time	RPSI			LPSI			L3			STRN			T10			C7			CLAV			RBAK			LBAK			LSHO			LUPA			LAEL			LAOL			LWTS			LWPS			LFRA			LIFD			LHPS			LHTS			RSHO			RUPA			RAEL			RAOL			RWTS			RWPS			RFRA			RIFD			RHTS			RHPS			RBHD			LFHD			RFHD			LBHD			LHIP			RHIP			RASI			LASI			LKNE			LTHI			LANK			LTIP			LTOE			LMT1			LMT5			LHEE			RKNE			RANK			RTIP			RTOE			RMT1			RMT5			RHEE			RTHI			*53			*54			
		X1	Y1	Z1	X2	Y2	Z2	X3	Y3	Z3	X4	Y4	Z4	X5	Y5	Z5	X6	Y6	Z6	X7	Y7	Z7	X8	Y8	Z8	X9	Y9	Z9	X10	Y10	Z10	X11	Y11	Z11	X12	Y12	Z12	X13	Y13	Z13	X14	Y14	Z14	X15	Y15	Z15	X16	Y16	Z16	X17	Y17	Z17	X18	Y18	Z18	X19	Y19	Z19	X20	Y20	Z20	X21	Y21	Z21	X22	Y22	Z22	X23	Y23	Z23	X24	Y24	Z24	X25	Y25	Z25	X26	Y26	Z26	X27	Y27	Z27	X28	Y28	Z28	X29	Y29	Z29	X30	Y30	Z30	X31	Y31	Z31	X32	Y32	Z32	X33	Y33	Z33	X34	Y34	Z34	X35	Y35	Z35	X36	Y36	Z36	X37	Y37	Z37	X38	Y38	Z38	X39	Y39	Z39	X40	Y40	Z40	X41	Y41	Z41	X42	Y42	Z42	X43	Y43	Z43	X44	Y44	Z44	X45	Y45	Z45	X46	Y46	Z46	X47	Y47	Z47	X48	Y48	Z48	X49	Y49	Z49	X50	Y50	Z50	X51	Y51	Z51	X52	Y52	Z52	X53	Y53	Z53	X54	Y54	Z54	X55	Y55	Z55	

657	6.56	-561.7708129882812	1121.196655273438	691.8379516601562	-484.7731323242188	1119.085815429688	580.399658203125	-527.0216064453125	1154.697509765625	630.2415161132812	-363.9035339355469	1367.30517578125	760.112060546875	-557.7191772460938	1305.147583007812	604.701904296875	-530.2182006835938	1598.749755859375	599.1788330078125	-393.494384765625	1499.400512695312	726.5809326171875	-623.4234008789062	1415.590698242188	643.89208984375	-470.7877807617188	1574.699096679688	516.9652709960938	-361.4197082519531	1561.252685546875	520.0137939453125	-329.9550476074219	1427.861694335938	459.5567321777344	-297.5814208984375	1209.926635742188	461.22607421875	-384.47509765625	1193.848266601562	459.7997131347656	-236.3531646728516	968.9010009765625	588.2540283203125	-275.8158264160156	931.0760498046875	517.5593872070312	-275.3914794921875	1095.802612304688	480.4381713867188	-229.0978240966797	781.0834350585938	636.9595947265625	-248.0833129882812	860.9349365234375	545.6525268554688	-211.3755950927734	881.830078125	601.1004028320312	-601.0218505859375	1589.522583007812	777.7023315429688	-653.4215087890625	1519.036376953125	822.4374389648438	-663.9234619140625	1225.243286132812	872.3009643554688	-610.6210327148438	1214.5654296875	790.3328857421875	-501.7207946777344	1031.669311523438	997.4176635742188	-573.998291015625	995.3623657226562	980.9384765625	-643.4046020507812	1160.79150390625	912.5484008789062	-431.3983764648438	855.7565307617188	1046.093994140625	-462.1423645019531	939.4526977539062	1046.406005859375	-529.0280151367188	913.1784057617188	1029.867797851562	-520.0071411132812	1790.857666015625	699.0669555664062	-304.0440063476562	1817.888549804688	667.4490356445312	-368.396728515625	1836.754150390625	778.97119140625	-459.8858337402344	1775.986938476562	579.0531616210938	-326.7801818847656	1036.337036132812	565.8098754882812	-536.2257080078125	1038.127197265625	868.603759765625	-441.0694580078125	1114.345092773438	875.7767333984375	-284.0411376953125	1107.995727539062	663.2407836914062	-224.268310546875	547.4013061523438	705.9027099609375	-257.840087890625	688.1896362304688	642.607666015625	-436.7059020996094	110.0295028686523	496.1981811523438	-343.3786010742188	345.283447265625	558.5518188476562	-313.7543029785156	45.87438583374023	680.1321411132812	-393.5533142089844	65.49090576171875	656.4356689453125	-336.1346130371094	67.74993896484375	557.3890380859375	-528.5709228515625	134.4419403076172	498.6583557128906	-483.5993347167969	544.5386962890625	854.4412841796875	-525.6522827148438	29.91628456115723	772.7727661132812	-502.4319152832031	408.5839233398438	848.835693359375	-305.218017578125	42.66200256347656	877.3543701171875	-330.8031311035156	41.88729858398438	808.6788940429688	-437.386474609375	40.03921890258789	875.9201049804688	-538.119384765625	34.66861724853516	699.936767578125	-501.402099609375	824.9993286132812	885.8790283203125	nan	nan	nan	nan	nan	nan	
658	6.57	-560.7919921875	1121.215087890625	694.6058959960938	-484.0941772460938	1119.713989257812	582.9056396484375	-526.0935668945312	1154.586181640625	633.0202026367188	-363.0524597167969	1367.385986328125	762.73828125	-557.0396118164062	1304.998291015625	608.0484619140625	-530.151123046875	1598.606079101562	602.0625610351562	-392.8682556152344	1499.42626953125	729.150390625	-622.9700317382812	1415.424560546875	647.2538452148438	-470.8891906738281	1574.5029296875	519.6895141601562	-361.5416564941406	1561.06005859375	522.383056640625	-330.2485961914062	1427.570678710938	462.0585327148438	-297.8858032226562	1209.61279296875	464.1377258300781	-384.7524719238281	1193.551879882812	463.0787658691406	-236.4761199951172	968.6868286132812	591.30712890625	-276.05029296875	930.8478393554688	520.6931762695312	-275.6861877441406	1095.510009765625	483.4514465332031	-228.9182281494141	780.9691162109375	640.0165405273438	-248.2167663574219	860.7301635742188	548.740966796875	-211.4042510986328	881.6517333984375	604.1090698242188	-600.3316040039062	1589.51806640625	780.8578491210938	-652.4844360351562	1518.965942382812	825.8427124023438	-662.0225830078125	1225.078857421875	875.8118896484375	-609.1092529296875	1214.529296875	793.5813598632812	-498.5789794921875	1032.059936523438	1000.1796875	-570.8275756835938	995.479736328125	984.0823364257812	-641.1131591796875	1160.72998046875	915.9605102539062	-427.3987731933594	856.4404296875	1048.59619140625	-458.4951477050781	940.0185546875	1049.047729492188	-525.3128051757812	913.480712890625	1032.816162109375	-519.9877319335938	1790.69970703125	701.5753173828125	-304.2234497070312	1818.297485351562	668.9947509765625	-368.1716613769531	1837.1591796875	780.7621459960938	-460.2926330566406	1775.814086914062	581.3313598632812	-326.1593933105469	1036.461059570312	568.2462158203125	-535.1541137695312	1038.002807617188	871.2798461914062	-439.9936828613281	1114.247192382812	878.4379272460938	-283.0459899902344	1108.188354492188	665.8478393554688	-224.4437561035156	547.2360229492188	707.7901000976562	-257.7632751464844	687.9810180664062	644.4544067382812	-428.5809936523438	102.3513259887695	507.5845336914062	-339.9238891601562	340.3856506347656	564.2273559570312	-304.8100280761719	46.96587371826172	693.7301025390625	-385.0718688964844	63.52182388305664	669.1143188476562	-327.29541015625	64.58402252197266	570.330810546875	-521.278076171875	124.4707183837891	508.7428894042969	-484.0105895996094	544.3555908203125	855.4652099609375	-525.7344970703125	29.85147094726562	772.7762451171875	-503.0505676269531	408.4881286621094	849.5014038085938	-305.4143676757812	42.79296493530273	877.33447265625	-330.852783203125	42.15050888061523	808.7262573242188	-437.4777221679688	39.98777008056641	875.9617919921875	-537.9442749023438	34.45254516601562	700.1010131835938	-500.8998107910156	824.7683715820312	887.8325805664062	nan	nan	nan	nan	nan	nan	
659	6.58	-559.7985229492188	1121.216186523438	697.1885986328125	-483.3318176269531	1120.42236328125	585.2883911132812	-525.132568359375	1154.490966796875	635.619140625	-362.2071533203125	1367.47802734375	765.2907104492188	-556.3258666992188	1304.848510742188	611.2535400390625	-530.0355224609375	1598.474853515625	604.850341796875	-392.2418823242188	1499.464111328125	731.6482543945312	-622.4840698242188	1415.277099609375	650.482421875	-470.9408264160156	1574.322387695312	522.3265380859375	-361.6104431152344	1560.90771484375	524.6909790039062	-330.4481506347656	1427.322998046875	464.5071716308594	-298.0992126464844	1209.340209960938	467.0105285644531	-384.9268798828125	1193.318725585938	466.3058471679688	-236.6317596435547	968.4270629882812	594.2177124023438	-276.2874145507812	930.6317749023438	523.6353149414062	-275.9273376464844	1095.253173828125	486.3801574707031	-228.8681945800781	780.730224609375	642.7730102539062	-248.3767395019531	860.514404296875	551.5885009765625	-211.4881896972656	881.4093017578125	606.9180908203125	-599.6354370117188	1589.523803710938	783.9126586914062	-651.5367431640625	1518.901000976562	829.1319580078125	-660.1552734375	1224.924926757812	879.1411743164062	-607.6378784179688	1214.516235351562	796.6504516601562	-495.6087646484375	1032.26025390625	1002.624694824219	-567.8758544921875	995.48486328125	986.89111328125	-638.8916015625	1160.622924804688	919.1585083007812	-423.7180480957031	856.8372802734375	1050.647216796875	-455.06591796875	940.3283081054688	1051.291748046875	-521.8524780273438	913.6005859375	1035.380981445312	-519.992919921875	1790.528564453125	703.9649047851562	-304.43310546875	1818.739135742188	670.475830078125	-368.0066833496094	1837.618286132812	782.4611206054688	-460.6997985839844	1775.612426757812	583.5186767578125	-325.6483764648438	1036.552368164062	570.4931030273438	-534.153564453125	1037.878295898438	873.8064575195312	-439.0161437988281	1114.163818359375	880.98193359375	-282.0035705566406	1108.391357421875	668.4424438476562	-224.9156341552734	546.9534912109375	709.5511474609375	-257.7907104492188	687.7137451171875	646.20458984375	-420.54052734375	94.93124389648438	518.6825561523438	-336.4851989746094	335.521240234375	569.72021484375	-296.5908203125	48.19466781616211	707.0106811523438	-377.1171569824219	61.78960800170898	681.4351196289062	-318.8302001953125	61.55972671508789	583.0237426757812	-513.9280395507812	114.8484649658203	518.473876953125	-484.4609680175781	544.2012329101562	856.4280395507812	-525.8241577148438	29.77875709533691	772.7888793945312	-503.6528930664062	408.4146423339844	850.1170043945312	-305.6336975097656	42.94784927368164	877.31884765625	-330.9173278808594	42.43329238891602	808.768798828125	-437.5642700195312	39.9374885559082	876.0028076171875	-537.830322265625	34.25477981567383	700.2361450195312	-500.47216796875	824.5540771484375	889.6846923828125	nan	nan	nan	nan	nan	nan	
660	6.59	-558.78125	1121.199096679688	699.58837890625	-482.501953125	1121.150390625	587.546630859375	-524.1357421875	1154.407592773438	638.04541015625	-361.3729248046875	1367.5771484375	767.7723388671875	-555.5725708007812	1304.693603515625	614.3137817382812	-529.8689575195312	1598.349853515625	607.5345458984375	-391.6163635253906	1499.509887695312	734.0706176757812	-621.9697265625	1415.140747070312	653.5660400390625	-470.9397583007812	1574.152221679688	524.8748779296875	-361.6172180175781	1560.798583984375	526.9365234375	-330.5523376464844	1427.116821289062	466.8991394042969	-298.2234497070312	1209.104370117188	469.828857421875	-385.0041809082031	1193.141967773438	469.4691772460938	-236.8000335693359	968.1241455078125	596.9653930664062	-276.5286254882812	930.4208984375	526.3811645507812	-276.1161499023438	1095.027587890625	489.2072448730469	-228.9492034912109	780.363525390625	645.2388305664062	-248.5643615722656	860.2818603515625	554.196044921875	-211.6136016845703	881.103759765625	609.5127563476562	-598.93896484375	1589.530639648438	786.8584594726562	-650.5843505859375	1518.832641601562	832.2940063476562	-658.3224487304688	1224.775024414062	882.2962036132812	-606.2092895507812	1214.517456054688	799.5458374023438	-492.8138732910156	1032.265502929688	1004.77001953125	-565.146240234375	995.3748779296875	989.3868408203125	-636.7409057617188	1160.476684570312	922.1519775390625	-420.3588256835938	856.93994140625	1052.261840820312	-451.845703125	940.37451171875	1053.146850585938	-518.6513061523438	913.5330200195312	1037.576904296875	-520.0160522460938	1790.344360351562	706.245849609375	-304.6667785644531	1819.200439453125	671.9000244140625	-367.8937072753906	1838.116088867188	784.0773315429688	-461.1055908203125	1775.382202148438	585.6221313476562	-325.2030944824219	1036.614013671875	572.59033203125	-533.2083129882812	1037.755126953125	876.1962280273438	-438.1377868652344	1114.088256835938	883.4197387695312	-280.9162292480469	1108.6025390625	671.0346069335938	-225.6563873291016	546.5748291015625	711.1884155273438	-257.9002380371094	687.4002075195312	647.8833618164062	-412.7000732421875	87.82225799560547	529.4306030273438	-333.123291015625	330.7670593261719	575.01611328125	-289.1565551757812	49.51505661010742	719.8975830078125	-369.759765625	60.28425979614258	693.3287963867188	-310.8033142089844	58.71434783935547	595.3917236328125	-506.6150512695312	105.6557769775391	527.8290405273438	-484.92236328125	544.0680541992188	857.3364868164062	-525.9177856445312	29.70077323913574	772.8067626953125	-504.2173767089844	408.3551940917969	850.6888427734375	-305.8681640625	43.12443542480469	877.307861328125	-330.9946594238281	42.72452545166016	808.8067016601562	-437.6433715820312	39.89057922363281	876.0413818359375	-537.807861328125	34.10024642944336	700.3132934570312	-500.1124572753906	824.3551635742188	891.4360961914062	nan	nan	nan	nan	nan	nan	
